<?xml version="1.0" encoding="UTF-8"?>
<svg xmlns="http://www.w3.org/2000/svg" version="1.1" viewBox="0 0 738 738">
  <!-- Generator: Adobe Illustrator 29.0.0, SVG Export Plug-In . SVG Version: 2.1.0 Build 186)  -->
  <defs>
    <style>
      .st0 {
        isolation: isolate;
      }
    </style>
  </defs>
  <g id="LARs" class="st0">
    <g id="LARs1" data-name="LARs">
      <path d="M734.58,192.76c0-60.7-11.49-102.22-34.46-124.57-22.98-22.34-66.71-33.51-131.21-33.51H169.91c-64.92,0-108.76,11.17-131.52,33.51C15.62,90.54,4.24,132.06,4.24,192.76v352.2c0,61.13,11.38,102.75,34.15,124.88s66.6,33.2,131.52,33.2h399c64.5,0,108.23-11.07,131.21-33.2,22.97-22.13,34.46-63.76,34.46-124.88v-79.04l-155.55-32.25v143.54H159.79V154.19h419.23v126.46l155.55-24.66v-63.23ZM189.74,313.29v101.16h99.44v-19.04h-75.89v-82.11h-23.54ZM301.74,414.45h23.45l11.77-22.11h64.12l12.15,22.11h26.41l-58-101.16h-22.68l-57.23,101.16ZM391.32,374.07h-44.31l22.49-41.15,21.82,41.15ZM568.33,371.58c3.6-3.13,5.41-8.1,5.41-14.93v-23.73c0-6.89-1.8-11.88-5.41-14.98-3.61-3.09-9.43-4.64-17.47-4.64h-86.52v101.16h23.16v-38.19h22.3l40.77,38.19h33.78l-46.7-38.19h13.21c8.04,0,13.86-1.56,17.47-4.69ZM548.81,357.17c-1.5,1.18-4.29,1.77-8.37,1.77h-52.92v-28.14h52.92c4.08,0,6.87.59,8.37,1.77,1.5,1.18,2.25,3.24,2.25,6.17v12.15c0,3-.75,5.09-2.25,6.27ZM612.94,394.02v2.12c0,7.03,1.33,11.84,3.99,14.43,2.66,2.59,7.78,3.88,15.34,3.88h47.83c7.57,0,12.68-1.29,15.34-3.88,2.66-2.59,3.99-7.4,3.99-14.43v-10.62c0-7.03-1.33-11.84-3.99-14.43-2.66-2.59-7.78-3.88-15.34-3.88h-48.27v-16.63h50.68v8.79l15.89-3.74v-1.61c0-6.35-1.38-10.77-4.14-13.26-2.76-2.49-7.78-3.74-15.05-3.74h-43.95c-7.52,0-12.6,1.29-15.23,3.88-2.64,2.59-3.96,7.4-3.96,14.43v8.57c0,7.03,1.32,11.84,3.96,14.43,2.64,2.59,7.71,3.88,15.23,3.88h48.27v17.65h-54.71v-9.16l-15.89,3.3Z"/>
    </g>
  </g>
</svg>